<svg width="2180" height="440" viewBox="0 0 2180 440" fill="none" xmlns="http://www.w3.org/2000/svg">
<g clip-path="url(#clip0_34877_333662)">
<path d="M401.836 96.1793V171.25C401.845 199.616 396.261 227.706 385.404 253.913C374.546 280.119 358.628 303.929 338.561 323.981H148.753L212.047 260.659L305.168 307.221C330.095 319.702 336.928 306.358 338.542 294.384V154.115C338.54 147.778 339.787 141.503 342.212 135.648C344.637 129.794 348.193 124.475 352.676 119.995L391.043 81.6531C356.068 38.4187 306.017 10.0294 250.957 2.19515C195.896 -5.63905 139.911 7.66307 94.2619 39.426H170.996C199.371 39.4235 227.469 45.0094 253.685 55.8645C279.902 66.7197 303.723 82.6316 323.788 102.692V292.507L260.494 229.242L307.064 136.117C311.343 127.559 312.582 121.103 311.85 116.336C310.517 107.102 302.071 103.761 294.225 102.729H153.858C147.519 102.728 141.243 101.477 135.387 99.0493C129.532 96.6213 124.213 93.0631 119.734 88.5784L80.8222 49.598C37.9173 84.6447 9.81511 134.585 2.12857 189.443C-5.55797 244.302 7.73702 300.04 39.358 345.526V270.268C39.332 241.902 44.8988 213.809 55.7401 187.595C66.5813 161.382 82.4844 137.563 102.54 117.499H292.366L229.091 180.765L135.933 134.202C111.005 121.722 104.154 135.066 102.558 147.039V287.309C102.552 300.108 97.4609 312.381 88.4055 321.428L50.0573 359.789C84.9268 402.148 134.364 429.956 188.676 437.761C242.989 445.566 298.258 432.804 343.647 401.979H270.086C212.786 401.975 157.834 379.218 117.312 338.713V148.916L180.588 212.182L134.018 305.307C129.738 313.865 128.499 320.321 129.213 325.088C130.545 334.34 138.992 337.662 146.876 338.694H287.129C293.474 338.694 299.757 339.943 305.619 342.371C311.48 344.799 316.806 348.358 321.292 352.845L358.983 390.531C401.68 355.735 429.77 306.193 437.705 251.694C445.639 197.194 432.84 141.701 401.836 96.1793Z" fill="url(#paint0_linear_34877_333662)"/>
<path d="M602.257 204.686C597.951 203.023 593.88 200.797 590.147 198.065C586.202 195.128 582.487 191.887 579.038 188.371L568.458 177.684C563.735 171.565 559.024 165.79 554.326 160.357C549.628 154.925 545.087 149.15 540.704 143.03C536.321 136.911 531.78 131.136 527.082 125.703C522.293 120.038 519.772 112.769 520.016 105.323L526.062 95.1332C527.482 94.4035 528.835 93.5477 530.105 92.5762C531.305 91.6309 532.679 90.9368 534.148 90.5343C535.803 90.157 537.497 89.984 539.193 90.0191H544.199L555.327 97.2323C560.038 103.364 564.919 109.483 569.969 115.59C575.02 121.696 579.894 127.981 584.592 134.443C589.263 140.856 594.31 146.98 599.707 152.782C605.211 158.643 611.302 163.913 617.882 168.506L621.906 169.517C624.511 168.89 626.936 167.662 628.991 165.93C631.013 164.231 633.034 162.38 635.037 160.338L641.101 154.213L647.147 148.106C651.19 143.361 655.063 138.432 658.766 133.317C662.469 128.203 666.336 123.28 670.367 118.548C674.397 113.79 678.264 108.866 681.967 103.778C685.653 98.6827 690.278 94.3544 695.589 91.0305L707.699 90L717.788 96.1255C718.513 97.5545 719.353 98.9204 720.301 100.209C721.248 101.407 721.936 102.792 722.322 104.274C722.696 105.945 722.867 107.656 722.833 109.369V114.407C718.834 121.866 714.099 128.899 708.701 135.397C703.322 141.847 698.108 148.304 693.057 154.766C688.006 161.229 682.628 167.685 676.923 174.135C671.204 180.585 665.316 186.869 659.258 192.989C655.895 195.698 652.702 198.077 649.679 200.126C646.524 202.215 643.138 203.925 639.59 205.221C635.887 206.582 632.02 207.771 627.99 208.789C624.031 209.8 619.907 209.969 615.879 209.285C611.156 207.924 606.615 206.391 602.257 204.686ZM535.149 344.829C533.74 344.811 532.355 344.458 531.106 343.798C529.805 343.152 528.618 342.295 527.592 341.26L524.059 337.673C523.452 336.446 522.777 335.254 522.038 334.104C521.328 333.015 520.816 331.807 520.526 330.536C520.169 329.03 519.997 327.485 520.016 325.937V321.357C523.345 313.935 527.765 307.064 533.128 300.977C538.519 294.87 543.733 288.586 548.771 282.123C553.809 275.661 558.848 269.376 563.886 263.27C568.924 257.138 574.472 251.025 580.53 244.931C583.893 242.203 587.105 239.665 590.128 237.298C593.111 234.945 596.32 232.899 599.707 231.192C603.051 229.493 606.621 228.291 610.306 227.623C614.009 226.937 617.876 226.256 621.906 225.582C626.681 226.27 631.403 227.29 636.038 228.635C640.697 229.969 645.121 232.029 649.15 234.741C653.193 237.464 657.06 240.352 660.75 243.405C664.606 246.631 668.155 250.215 671.349 254.11C676.06 260.229 680.94 266.348 685.991 272.468C691.042 278.587 695.916 284.528 700.614 290.291C705.325 296.066 710.199 302.014 715.238 308.133C720.226 314.111 722.91 321.707 722.795 329.524L714.728 341.756L702.617 345.84C701.175 345.124 699.643 344.611 698.064 344.313C696.495 344 694.971 343.487 693.53 342.787C692.224 342.13 691.032 341.267 689.997 340.23L686.464 336.661C681.753 330.555 676.878 324.442 671.84 318.323C666.802 312.204 661.922 306.091 657.198 299.985C652.488 293.865 647.449 287.746 642.084 281.627C636.833 275.638 630.711 270.491 623.928 266.361H618.883C611.495 271.102 604.857 276.944 599.197 283.688C593.491 290.481 587.943 297.275 582.552 304.068L566.417 324.448C560.892 331.395 554.814 337.873 548.242 343.817L539.174 345.859C537.931 345.201 536.552 344.848 535.149 344.829Z" fill="#8B85FF"/>
<path d="M744.031 343.798L738.987 334.619V130.798C739.653 128.115 740.157 125.394 740.498 122.65C740.862 119.828 741.56 117.06 742.576 114.406L745.599 106.258C746.591 103.586 748.137 101.159 750.134 99.1401C751.508 97.7742 753.036 96.5765 754.687 95.5716C756.44 94.5211 758.303 93.6699 760.241 93.0336C762.356 92.3292 764.571 91.981 766.797 92.0032H773.353C774.695 92.6901 776.206 93.3771 777.888 94.045C779.634 94.7587 781.321 95.6138 782.932 96.6021C784.502 97.5376 786.022 98.5568 787.485 99.6553C788.909 100.746 790.254 101.939 791.509 103.224C801.451 116.617 810.052 130.974 817.185 146.083C824.251 161.031 831.5 175.807 838.931 190.412C846.362 205.017 853.762 219.793 861.13 234.741L883.329 279.585L884.274 278.516V105.323L890.32 95.1327C891.737 94.3985 893.09 93.543 894.363 92.5757C895.558 91.6344 896.926 90.9405 898.387 90.5338C900.042 90.1587 901.736 89.9857 903.432 90.0186H908.476L918.584 96.1441L923.628 105.323V309.144C922.954 311.832 922.443 314.56 922.098 317.311C921.775 320.094 921.128 322.829 920.171 325.459L917.129 333.608C916.151 336.292 914.604 338.728 912.595 340.744C911.231 342.114 909.708 343.312 908.06 344.313C906.307 345.363 904.444 346.215 902.506 346.851C900.391 347.554 898.176 347.902 895.95 347.881H889.394C888.053 347.194 886.522 346.526 884.841 345.839C883.094 345.126 881.407 344.271 879.796 343.282C878.229 342.352 876.716 341.332 875.262 340.229C873.831 339.139 872.48 337.947 871.219 336.661C861.237 323.267 852.598 308.903 845.43 293.782C838.377 278.847 831.147 264.071 823.741 249.453C816.335 234.836 808.935 220.06 801.542 205.125L779.342 160.281L778.341 161.292V334.619L772.276 344.828C770.861 345.549 769.514 346.398 768.252 347.366C767.05 348.308 765.676 349.002 764.209 349.408C762.554 349.785 760.86 349.958 759.165 349.923H754.12L744.031 343.798Z" fill="#8B85FF"/>
<path d="M1018 346.355C1011.55 344.635 1005.29 342.243 999.332 339.218C993.416 336.26 987.829 332.671 982.669 328.513C977.386 324.2 972.493 319.424 968.045 314.239C961.914 306.647 956.83 298.25 952.931 289.279C948.947 280.31 945.895 270.948 943.825 261.342C941.816 251.924 940.634 242.346 940.292 232.718C939.952 223.202 939.788 213.349 939.8 203.159L943.825 178.695C945.196 170.449 947.569 162.406 950.891 154.747C954.26 146.924 958.312 139.42 963.001 132.325C967.718 125.181 973.505 118.82 980.156 113.471C986.009 108.847 992.256 104.753 998.822 101.239C1005.2 97.8481 1011.98 95.2835 1019 93.6063C1026.12 91.904 1033.38 90.8818 1040.69 90.5531C1048.1 90.2096 1055.49 90.0378 1062.89 90.0378C1069.37 90.6746 1075.78 91.8684 1082.06 93.6063C1088.33 95.388 1094.41 97.7781 1100.22 100.743C1106.25 103.781 1111.99 107.364 1117.38 111.448C1122.89 115.661 1127.96 120.445 1132.49 125.722C1138.61 133.32 1143.7 141.715 1147.6 150.682C1151.57 159.687 1154.61 169.081 1156.67 178.715C1158.68 188.133 1159.86 197.711 1160.21 207.338C1160.55 216.867 1160.72 226.72 1160.72 236.897L1156.73 261.342C1155.36 269.588 1152.99 277.632 1149.66 285.291C1146.3 293.113 1142.26 300.617 1137.57 307.713C1132.85 314.852 1127.06 321.212 1120.42 326.566C1114.9 331.409 1108.79 335.519 1102.24 338.798C1095.63 342.145 1088.66 344.706 1081.46 346.431C1074.34 348.135 1067.08 349.157 1059.77 349.484C1052.37 349.828 1044.97 350 1037.57 350C1030.96 349.302 1024.42 348.083 1018 346.355ZM1096.2 294.374C1098.97 291.906 1101.5 289.177 1103.75 286.226C1105.97 283.404 1107.83 280.322 1109.31 277.047C1110.79 273.721 1112.48 270.49 1114.35 267.372C1115.69 262.602 1116.88 257.831 1117.89 253.098C1118.89 248.366 1119.78 243.404 1120.42 238.309C1121.07 233.413 1121.4 228.48 1121.42 223.54V208.273C1120.74 202.835 1119.91 197.396 1118.89 191.958C1117.91 186.604 1116.56 181.325 1114.86 176.157C1113.1 170.893 1110.91 165.787 1108.31 160.891C1105.63 155.831 1102.23 151.196 1098.22 147.133C1094.42 143.917 1090.37 141.02 1086.11 138.469C1081.83 136.003 1077.25 134.123 1072.49 132.878C1067.7 131.554 1062.79 130.698 1057.84 130.321C1053.13 129.978 1048.1 129.806 1042.73 129.806C1038.7 130.493 1034.83 131.173 1031.13 131.848C1027.44 132.517 1023.87 133.712 1020.51 135.397C1017.18 137.053 1013.96 138.921 1010.86 140.988C1007.83 143.03 1004.62 145.396 1001.26 148.125C995.989 153.413 991.719 159.627 988.658 166.464C985.66 173.175 983.459 180.221 982.102 187.454C980.737 194.686 979.891 202.007 979.57 209.361C979.23 216.842 979.06 224.316 979.06 231.783C979.74 237.228 980.584 242.667 981.592 248.099C982.578 253.453 983.929 258.733 985.635 263.899C987.388 269.166 989.581 274.273 992.191 279.165C994.856 284.233 998.257 288.871 1002.28 292.924C1006.07 296.148 1010.12 299.046 1014.39 301.587C1018.66 304.057 1023.24 305.937 1028.01 307.178C1032.79 308.5 1037.69 309.357 1042.64 309.735C1047.35 310.079 1052.38 310.251 1057.75 310.251C1060.41 309.567 1063.11 309.057 1065.84 308.724C1068.39 308.406 1070.92 307.89 1073.39 307.178C1075.8 306.486 1078.16 305.638 1080.46 304.64C1082.75 303.658 1084.94 302.464 1087.01 301.072C1090.26 299.115 1093.34 296.873 1096.2 294.374Z" fill="#8B85FF"/>
<path d="M1186.77 318.456C1186.01 317.694 1185.41 316.786 1185.01 315.784L1183.84 312.826C1183.44 311.787 1183.24 310.679 1183.25 309.564V305.995L1186.77 299.469C1187.52 298.707 1188.42 298.104 1189.41 297.695L1192.36 296.512C1193.39 296.105 1194.49 295.904 1195.59 295.92H1199.1L1205.58 299.469C1206.34 300.234 1206.94 301.142 1207.34 302.141L1208.51 305.117C1208.92 306.156 1209.12 307.264 1209.1 308.38V311.93L1205.58 318.456C1204.83 319.226 1203.93 319.835 1202.94 320.249L1199.99 321.432C1198.96 321.839 1197.87 322.04 1196.76 322.024H1193.23L1186.77 318.456Z" fill="#49DFBA"/>
<path d="M1271.98 348.13L1267.27 345.764C1265.64 344.919 1264.16 343.818 1262.87 342.501L1259.09 338.684C1252.49 329.317 1247.52 318.882 1244.39 307.828C1241.26 296.734 1238.32 285.756 1235.59 274.891C1232.86 264.027 1229.82 253.048 1226.48 241.955C1223.18 231.044 1220.53 219.944 1218.55 208.713L1222.06 202.778L1224.42 201.595L1226.77 200.412C1227.59 200.006 1228.5 199.803 1229.41 199.82H1232.06L1238.52 203.37C1242.43 213.654 1245.77 224.153 1248.51 234.818C1251.26 245.504 1254.1 256.088 1257.03 266.571C1259.97 277.054 1262.81 287.734 1265.55 298.611C1268.12 309.194 1273.39 318.917 1280.82 326.815C1281.99 326.013 1283.07 325.231 1284.05 324.43C1285.04 323.633 1285.85 322.622 1286.41 321.472C1286.99 320.289 1287.58 319.201 1288.17 318.209C1288.75 317.216 1289.43 316.129 1290.23 314.945C1293.36 305.849 1296.2 296.55 1298.75 287.047C1301.29 277.544 1303.94 268.047 1306.68 258.556C1309.43 249.066 1311.95 239.671 1314.24 230.372C1316.65 220.931 1319.8 211.703 1323.69 202.778C1324.51 202.347 1325.29 201.849 1326.03 201.29C1326.72 200.739 1327.52 200.336 1328.37 200.107C1329.24 199.907 1330.13 199.811 1331.02 199.82H1333.66L1340.71 204.553C1341.06 205.272 1341.46 205.967 1341.9 206.633C1342.3 207.271 1342.6 207.974 1342.77 208.713C1342.97 209.485 1343.07 210.28 1343.07 211.079V213.464L1333.62 246.687C1330.51 257.73 1327.47 268.893 1324.48 280.177C1321.5 291.461 1318.35 302.644 1315.03 313.724C1311.7 324.848 1305.8 335.017 1297.82 343.398C1296.25 344.593 1294.68 345.681 1293.12 346.661C1291.56 347.654 1289.88 348.454 1288.13 349.046C1286.3 349.657 1284.39 349.96 1282.46 349.943H1276.68C1275.05 349.516 1273.47 348.908 1271.98 348.13Z" fill="#49DFBA"/>
<path d="M1355.41 346.355L1352.46 341.012V222.319C1352.86 220.756 1353.15 219.169 1353.35 217.567C1353.55 215.949 1353.95 214.36 1354.52 212.835L1356.3 208.083C1356.86 206.516 1357.77 205.096 1358.94 203.923C1359.73 203.127 1360.61 202.429 1361.57 201.843C1362.59 201.232 1363.67 200.739 1364.8 200.374C1366.02 199.974 1367.29 199.774 1368.58 199.782H1372.36C1373.13 200.164 1374.02 200.565 1375 200.965C1376.02 201.37 1377 201.862 1377.93 202.435C1378.91 203.045 1379.82 203.637 1380.57 204.229C1381.41 204.861 1382.2 205.556 1382.94 206.309C1388.74 214.094 1393.75 222.442 1397.92 231.23C1402.02 239.932 1406.23 248.538 1410.54 257.049C1414.85 265.56 1419.15 274.16 1423.46 282.849L1436.5 309.049L1437.08 308.458V207.492L1440.6 201.557C1441.43 201.13 1442.22 200.632 1442.96 200.069C1443.65 199.518 1444.45 199.115 1445.3 198.885C1446.27 198.659 1447.26 198.556 1448.25 198.58H1451.18L1457.05 202.149L1460 207.492V326.223C1459.6 327.78 1459.31 329.361 1459.11 330.956C1458.91 332.581 1458.52 334.176 1457.94 335.707L1456.16 340.459C1455.59 342.024 1454.69 343.443 1453.52 344.619C1452.73 345.414 1451.84 346.106 1450.87 346.68C1449.86 347.304 1448.78 347.804 1447.64 348.168C1446.42 348.572 1445.15 348.771 1443.87 348.76H1440.09C1439.31 348.378 1438.42 347.978 1437.44 347.577C1436.43 347.158 1435.45 346.66 1434.51 346.088C1433.6 345.546 1432.72 344.953 1431.87 344.314C1431.03 343.681 1430.24 342.986 1429.51 342.234C1423.71 334.449 1418.69 326.1 1414.52 317.312C1410.43 308.61 1406.22 300.004 1401.9 291.493C1397.58 282.982 1393.28 274.376 1388.98 265.674L1376.04 239.569L1375.45 240.161V341.051L1371.94 346.985C1371.11 347.412 1370.32 347.91 1369.58 348.474C1368.88 349.025 1368.09 349.427 1367.24 349.657C1366.27 349.874 1365.28 349.977 1364.29 349.962H1361.36L1355.41 346.355Z" fill="#49DFBA"/>
</g>
<defs>
<linearGradient id="paint0_linear_34877_333662" x1="350.33" y1="377.956" x2="160.051" y2="147.367" gradientUnits="userSpaceOnUse">
<stop stop-color="#8B85FF"/>
<stop offset="0.99" stop-color="#49DFBA"/>
</linearGradient>
<clipPath id="clip0_34877_333662">
<rect width="1460" height="440" fill="white"/>
</clipPath>
</defs>
</svg>
